<svg version="1.1" id="Layer_1" xmlns="http://www.w3.org/2000/svg" xmlns:xlink="http://www.w3.org/1999/xlink" x="0px" y="0px"
	 width="100%" viewBox="0 0 544 544" enable-background="new 0 0 544 544" xml:space="preserve">
<path fill="#000000" opacity="1.000000" stroke="none" 
	d="
M545.000000,308.541931 
	C542.315247,318.355103 535.847412,324.277832 527.967834,329.630554 
	C461.129242,375.035309 394.454956,420.682007 327.752136,466.286530 
	C312.716858,476.566071 296.737976,473.423157 286.838196,458.164154 
	C280.128082,447.821533 273.357025,437.518341 266.581573,427.218323 
	C265.589478,425.710114 264.421417,424.317566 263.250641,422.759613 
	C258.789215,424.263153 255.651703,427.349274 252.082230,429.696442 
	C247.349579,432.808563 242.715393,436.070496 238.040100,439.269806 
	C223.802063,449.012970 207.265778,446.081024 197.389618,431.767944 
	C189.631546,420.524506 182.039886,409.155548 174.754898,397.602386 
	C172.297928,393.705902 170.404587,393.640167 166.962860,396.146790 
	C160.098602,401.146088 152.966919,405.777283 145.966248,410.590424 
	C131.382889,420.616913 113.885475,417.527191 104.031860,402.788269 
	C85.326645,374.809174 66.847649,346.678955 48.251842,318.626648 
	C38.585442,304.044617 28.841600,289.513885 19.184702,274.925598 
	C8.068529,258.132812 11.485540,242.294281 28.020540,231.028305 
	C69.743988,202.600403 111.329063,173.969345 152.954758,145.398087 
	C181.116028,126.068581 209.212036,106.643700 237.414154,87.374046 
	C255.158615,75.249779 270.883148,78.480331 282.691711,96.363548 
	C288.016632,104.427750 293.546387,112.358292 298.777557,120.481918 
	C300.664093,123.411568 302.323395,123.784149 305.164276,121.746086 
	C311.526031,117.182228 318.040100,112.827988 324.542847,108.463959 
	C339.681152,98.304604 356.626587,101.500725 366.790710,116.611198 
	C376.369202,130.851044 385.702087,145.255936 395.195892,159.553101 
	C396.552063,161.595428 398.206299,163.439850 400.039978,165.781082 
	C406.175995,161.733765 411.992981,157.913040 417.793610,154.067627 
	C432.404327,144.381699 447.990814,147.563278 457.553650,162.168854 
	C484.935791,203.990402 512.319763,245.810730 539.732727,287.612061 
	C541.756897,290.698639 543.471863,293.905518 544.826294,297.699432 
	C545.000000,301.361298 545.000000,304.722565 545.000000,308.541931 
M288.243591,123.176956 
	C283.314362,115.851189 278.442749,108.485817 273.442780,101.208633 
	C265.314148,89.377914 255.209671,87.531967 243.517258,95.582817 
	C183.694489,136.774017 123.868469,177.960480 64.031601,219.131210 
	C53.739071,226.212982 43.345188,233.147919 33.077312,240.264938 
	C22.838329,247.361908 20.220051,257.619659 26.432096,267.028351 
	C55.074093,310.409210 83.769699,353.754791 112.541145,397.049896 
	C118.970535,406.724792 129.896423,408.822479 139.594925,402.414612 
	C146.821411,397.640076 153.748917,392.409027 161.024597,387.714569 
	C164.713028,385.334717 164.998108,383.191772 162.600189,379.654144 
	C155.029053,368.484558 147.724976,357.134216 140.279633,345.878906 
	C128.973526,328.787231 117.486923,311.812744 106.355179,294.608521 
	C96.299873,279.067932 99.446259,262.418091 113.896790,252.535126 
	C171.521225,213.124664 229.144516,173.712509 286.770050,134.303650 
	C292.895020,130.114899 292.900604,130.123047 288.243591,123.176956 
M260.390442,247.958527 
	C251.321045,254.166245 242.239868,260.356873 233.184402,266.584839 
	C203.960175,286.684113 174.755264,306.811462 145.508377,326.877686 
	C143.156464,328.491302 141.806686,329.783264 143.825043,332.803040 
	C164.556747,363.821045 185.115784,394.954529 205.873184,425.955231 
	C212.163452,435.349548 222.152573,437.244751 231.590240,431.050385 
	C238.688385,426.391571 245.411362,421.152039 252.588654,416.626678 
	C256.479218,414.173615 256.833221,412.200653 254.305878,408.390381 
	C237.735886,383.409302 221.371719,358.291656 204.953537,333.209930 
	C195.464691,318.714020 198.549316,302.740448 212.777756,293.090759 
	C267.089844,256.256256 321.426117,219.457443 375.742645,182.629547 
	C380.667145,179.290649 385.515015,175.838806 390.646332,172.266861 
	C388.764130,169.026794 387.273682,166.130539 384.491821,163.485168 
	C376.419891,168.979950 368.464783,174.395950 360.508911,179.810867 
	C327.333740,202.390518 294.158386,224.969864 260.390442,247.958527 
M287.003876,146.555542 
	C231.788177,184.376068 176.706421,222.394775 121.254700,259.866058 
	C108.704689,268.346680 107.952896,283.758698 119.779953,294.283081 
	C200.381302,239.119766 281.072998,183.894592 361.880707,128.590057 
	C360.743896,126.831680 360.139648,125.850143 359.490173,124.899521 
	C350.189056,111.286324 341.281189,109.578110 327.628967,118.855690 
	C314.271698,127.932838 300.948975,137.060776 287.003876,146.555542 
M454.640533,336.071747 
	C460.337799,337.527771 466.089050,337.462921 471.072449,334.327942 
	C480.350952,328.491058 489.707886,322.651764 498.298248,315.882172 
	C507.854858,308.351166 508.517944,294.400299 500.744232,285.033508 
	C493.063110,275.778259 479.136322,273.910736 469.809326,281.215851 
	C463.634430,286.052185 457.248657,290.477875 450.438690,294.375061 
	C441.882050,299.271790 437.348633,306.785675 438.459198,316.718384 
	C439.508331,326.101624 444.942963,332.510803 454.640533,336.071747 
z"/>
<path fill="#000000" opacity="1.000000" stroke="none" 
	d="
M51.901985,255.407593 
	C55.834427,247.731995 61.937565,244.221451 70.023338,245.099731 
	C77.372337,245.897964 82.869698,249.787003 84.996262,257.195129 
	C87.109962,264.558380 85.434387,271.141235 79.485023,276.144012 
	C73.686569,281.019836 67.052948,281.669128 60.346340,278.284271 
	C53.648445,274.903809 50.315845,269.229034 50.711590,261.635956 
	C50.813965,259.671661 51.396584,257.732452 51.901985,255.407593 
z"/>
</svg>